<svg width="28" height="34" viewBox="0 0 28 34" fill="none" xmlns="http://www.w3.org/2000/svg">
<path d="M10.6709 17.0897C10.6709 17.7408 10.8641 18.3773 11.2259 18.9185C11.5878 19.4598 12.1021 19.8815 12.7037 20.1303C13.3054 20.3792 13.9672 20.444 14.6057 20.3165C15.2442 20.1889 15.8305 19.8749 16.2904 19.4141C16.7503 18.9532 17.0632 18.3663 17.1893 17.7276C17.3155 17.0889 17.2495 16.4271 16.9994 15.8259C16.7493 15.2248 16.3266 14.7114 15.7846 14.3506C15.2426 13.9899 14.6058 13.7981 13.9547 13.7993C13.0832 13.8011 12.248 14.1485 11.6323 14.7655C11.0167 15.3823 10.6709 16.2182 10.6709 17.0897Z" fill="#CFBA49"/>
<path d="M13.9545 27.374C13.3037 27.374 12.6675 27.567 12.1264 27.9285C11.5853 28.2901 11.1636 28.804 10.9146 29.4052C10.6655 30.0065 10.6003 30.6681 10.7273 31.3064C10.8543 31.9446 11.1677 32.5309 11.6278 32.9911C12.088 33.4513 12.6743 33.7647 13.3126 33.8917C13.9509 34.0186 14.6124 33.9535 15.2137 33.7044C15.8149 33.4554 16.3288 33.0336 16.6904 32.4925C17.0519 31.9514 17.2449 31.3152 17.2449 30.6644C17.2449 29.7918 16.8983 28.9548 16.2811 28.3378C15.6641 27.7207 14.8272 27.374 13.9545 27.374Z" fill="#CFBA49"/>
<path d="M24.0524 13.7993C23.4016 13.7993 22.7654 13.9923 22.2243 14.3539C21.6832 14.7154 21.2615 15.2293 21.0124 15.8306C20.7634 16.4318 20.6982 17.0934 20.8252 17.7317C20.9521 18.3699 21.2655 18.9563 21.7257 19.4164C22.1859 19.8766 22.7722 20.19 23.4104 20.3169C24.0487 20.4439 24.7104 20.3788 25.3116 20.1297C25.9128 19.8807 26.4267 19.4589 26.7882 18.9178C27.1498 18.3767 27.3428 17.7406 27.3428 17.0897C27.3428 16.2171 26.9961 15.3801 26.3791 14.7631C25.762 14.146 24.925 13.7993 24.0524 13.7993Z" fill="#CFBA49"/>
<path d="M13.9547 6.62576C14.6058 6.62709 15.2426 6.43519 15.7846 6.07445C16.3266 5.7137 16.7493 5.20029 16.9994 4.59915C17.2495 3.99802 17.3155 3.33621 17.1893 2.6975C17.0632 2.0588 16.7503 1.47186 16.2904 1.011C15.8305 0.550207 15.2442 0.23615 14.6057 0.108663C13.9672 -0.0188905 13.3054 0.0459187 12.7037 0.294765C12.1021 0.543611 11.5878 0.965306 11.2259 1.50656C10.8641 2.04781 10.6709 2.68425 10.6709 3.33534C10.6709 4.20683 11.0167 5.04276 11.6323 5.65968C12.248 6.27654 13.0832 6.62396 13.9547 6.62576Z" fill="#CFBA49"/>
<path d="M7.08079 16.7101C7.08079 16.0593 6.88783 15.4231 6.52628 14.882C6.16473 14.3409 5.65085 13.9192 5.04959 13.6701C4.44832 13.4211 3.78677 13.3559 3.14847 13.4829C2.51017 13.6099 1.92389 13.9232 1.4637 14.3834C1.00357 14.8436 0.69018 15.4298 0.563225 16.0681C0.436271 16.7064 0.501414 17.3681 0.75046 17.9693C0.999507 18.5705 1.42127 19.0844 1.96232 19.446C2.50344 19.8075 3.13961 20.0005 3.79037 20.0005C4.66306 20.0005 5.49999 19.6538 6.11711 19.0368C6.73416 18.4197 7.08079 17.5827 7.08079 16.7101Z" fill="#CFBA49"/>
<path d="M21.4415 21.5725C20.2644 20.3882 19.6037 18.7862 19.6037 17.1164C19.6037 15.4466 20.2644 13.8446 21.4415 12.6603C21.9004 12.1996 22.2125 11.6133 22.3384 10.9754C22.4643 10.3375 22.3984 9.67659 22.1489 9.07605C21.8996 8.47559 21.4778 7.96244 20.9369 7.60149C20.3962 7.24048 19.7605 7.04785 19.1102 7.04785C18.46 7.04785 17.8244 7.24048 17.2836 7.60149C16.7427 7.96244 16.321 8.47559 16.0716 9.07605C15.8221 9.67659 15.7562 10.3375 15.8821 10.9754C16.008 11.6133 16.3201 12.1996 16.779 12.6603C17.3702 13.2462 17.8396 13.9434 18.1599 14.7117C18.4802 15.4799 18.6451 16.3041 18.6451 17.1364C18.6451 17.9687 18.4802 18.7929 18.1599 19.5611C17.8396 20.3294 17.3702 21.0265 16.779 21.6124C16.3201 22.0731 16.008 22.6594 15.8821 23.2973C15.7562 23.9353 15.8221 24.5962 16.0716 25.1967C16.321 25.7972 16.7427 26.3103 17.2836 26.6713C17.8244 27.0323 18.46 27.2249 19.1102 27.2249C19.7605 27.2249 20.3962 27.0323 20.9369 26.6713C21.4778 26.3103 21.8996 25.7972 22.1489 25.1967C22.3984 24.5962 22.4643 23.9353 22.3384 23.2973C22.2125 22.6594 21.9004 22.0731 21.4415 21.6124V21.5725Z" fill="white"/>
<path d="M11.9698 23.4909C11.9663 22.627 11.6271 21.7982 11.024 21.1796C9.84692 19.9954 9.18624 18.3934 9.18624 16.7236C9.18624 15.0538 9.84692 13.4519 11.024 12.2675C11.4829 11.8069 11.795 11.2205 11.9209 10.5826C12.0468 9.94472 11.9809 9.28377 11.7315 8.6833C11.4821 8.08276 11.0603 7.56969 10.5195 7.20867C9.97867 6.84773 9.34297 6.65503 8.69275 6.65503C8.04252 6.65503 7.40688 6.84773 6.86603 7.20867C6.32524 7.56969 5.90348 8.08276 5.65404 8.6833C5.40466 9.28377 5.33872 9.94472 5.4646 10.5826C5.59056 11.2205 5.90262 11.8069 6.36148 12.2675C6.95175 12.8533 7.42027 13.5501 7.73999 14.3177C8.05971 15.0854 8.22429 15.9087 8.22429 16.7402C8.22429 17.5718 8.05971 18.3952 7.73999 19.1628C7.42027 19.9305 6.95175 20.6273 6.36148 21.2129C5.98268 21.5977 5.70432 22.0697 5.55106 22.5875C5.3978 23.1051 5.37422 23.6526 5.48252 24.1816C5.59082 24.7105 5.82762 25.2047 6.17204 25.6205C6.51647 26.0363 6.95788 26.361 7.45744 26.5659C7.957 26.7707 8.49925 26.8496 9.03644 26.7954C9.57363 26.7412 10.0892 26.5556 10.5378 26.255C10.9863 25.9545 11.354 25.5482 11.6084 25.0719C11.8628 24.5957 11.9961 24.0641 11.9965 23.5242L11.9698 23.4909Z" fill="white"/>
</svg>
